<svg xmlns="http://www.w3.org/2000/svg" width="128" height="128" fill="none" viewBox="0 0 128 128"><g clip-path="url(#clip0_10711_11906)"><circle cx="64" cy="64" r="64" fill="#fff"/><path fill="#000" fill-rule="evenodd" d="M71.867 47.297c0 2.139.838 4.106 2.421 5.693 2.227 2.228 4.666 2.533 6.325 2.4 1.974-.163 3.96-1.067 5.315-2.42l.348-.35c.996-.998 1.607-1.61 2.202-2.189l4.088 3.992 2.87-2.89.039-.07-4.028-4.04 2.865-2.875-2.995-3.003-2.865 2.878s-8.372-8.414-9.41-9.465c-.559-.569-.9-1.166-.9-2.116 0-1.006.452-1.677.837-2.06.56-.564 1.385-.914 2.14-.914 1.15 0 1.86.611 2.103.87l.063.063.062-.06 1.702-1.7 1.174-1.178.05-.059-.079-.089a7.05 7.05 0 0 0-5.086-2.115c-1.999 0-3.85.8-5.208 2.25-1.271 1.353-1.997 3.167-1.997 4.978 0 3.008 1.708 4.856 2.915 5.982l-2.547 2.5c-1.482 1.483-2.404 3.78-2.404 5.987m5.409-2.968 2.53-2.539 5.663 5.624a275 275 0 0 1-2.563 2.577c-1.459 1.437-3.874 1.74-5.63-.018-.767-.773-1.171-1.731-1.171-2.778 0-1.055.44-2.13 1.17-2.867M95.733 65.19c-3.87-3.867-9.02-5.994-14.496-5.994S70.61 61.323 66.74 65.19c-3.871 3.87-6.004 9.01-6.004 14.478s2.133 10.605 6.004 14.471c3.871 3.87 9.021 5.997 14.497 5.997s10.625-2.128 14.496-5.997c3.873-3.866 6.006-9.002 6.006-14.471S99.606 69.06 95.733 65.19M81.237 94.87a15.14 15.14 0 0 1-10.768-4.455 15.1 15.1 0 0 1-4.465-10.748c0-4.065 1.588-7.88 4.465-10.752a15.12 15.12 0 0 1 10.768-4.457c4.068 0 7.892 1.58 10.77 4.457a15.1 15.1 0 0 1 4.46 10.752c0 8.382-6.831 15.203-15.23 15.203M60.77 50.14a23.48 23.48 0 0 1-12.468 20.762 15.94 15.94 0 0 1 5.33 5.582 15.8 15.8 0 0 1 2.07 7.825c0 4.24-1.661 8.23-4.667 11.234a15.8 15.8 0 0 1-11.248 4.651h-7.791l-.012-73.58h5.227c6.293 0 12.211 2.445 16.665 6.894 4.453 4.444 6.894 10.352 6.894 16.633M50.145 37.229a18.22 18.22 0 0 0-12.86-5.347v36.523a18.22 18.22 0 0 0 12.86-5.346c3.458-3.448 5.352-8.036 5.352-12.917 0-4.876-1.894-9.46-5.352-12.913m-12.86 57.701h2.496c5.865 0 10.637-4.764 10.637-10.62 0-2.837-1.104-5.501-3.111-7.512a10.64 10.64 0 0 0-7.547-3.103s-2.042-.012-2.474-.012Z" clip-rule="evenodd"/></g><defs><clipPath id="clip0_10711_11906"><path fill="#fff" d="M0 0h128v128H0Z"/></clipPath></defs></svg>